<?xml version="1.0" encoding="utf-8"?>
<svg viewBox="0 0 500 500" xmlns="http://www.w3.org/2000/svg">
  <path style="stroke: rgb(0, 0, 0); fill: rgb(199, 19, 235);" d="M 102.732 66.508 C 102.014 77.985 102.138 72.836 102.138 81.948 C 102.138 85.042 100.6 98.624 106.295 99.762 C 109.012 100.306 111.872 99.321 114.608 99.762 C 118.827 100.443 122.874 101.967 127.078 102.732 C 131.596 103.553 136.15 104.298 140.736 104.513 C 148.843 104.893 157.005 103.734 165.083 104.513 C 173.507 105.325 181.648 108.051 190.024 109.264 C 213.53 112.666 207.134 110.008 230.998 111.045 C 261.044 112.351 295.547 116.425 325.416 110.451 C 326.365 110.262 311.614 99.625 309.382 98.575 C 305.157 96.586 300.452 94.673 296.318 92.043 C 288.555 87.102 290.779 81.523 282.066 89.074 C 280.687 90.269 279.111 91.263 277.91 92.637 C 264.277 108.217 252.382 123.425 241.093 140.736 C 236.466 147.831 231.492 154.108 226.247 160.926 C 208.331 184.217 243.974 139.892 221.496 166.865 C 221.306 167.093 220.667 169.957 220.309 169.24 C 217.578 163.779 220.84 150.989 222.09 145.487 C 225.209 131.763 229.81 116.87 229.81 102.732 C 229.81 95.061 231.018 87.005 223.278 83.135 C 218.121 80.557 196.914 77.054 190.618 79.572 C 180.952 83.439 172.968 96.038 167.458 104.513 C 163.244 110.997 158.401 118.277 156.77 125.891 C 155.465 131.979 157.195 127.372 154.988 131.235 C 154.367 132.322 153.8 136.05 153.8 134.798 C 153.8 120.885 168.008 102.479 175.178 91.449 C 202.909 48.785 159.474 120.443 180.523 81.354 C 181.52 79.501 186.773 76.394 184.679 76.603 C 169.583 78.113 182.706 75.534 156.77 87.292 C 126.48 101.023 98.939 118.126 71.259 136.58 C 19.594 171.023 92.8 119.963 48.694 154.988 C 45.832 157.26 30.902 162.754 35.036 171.021 C 35.827 172.605 38.875 170.164 39.786 168.646 C 41.565 165.682 42.44 162.258 43.943 159.145 C 48.916 148.844 55.935 141.498 63.539 133.017 C 86.901 106.96 116.137 89.531 148.456 76.603 C 148.858 76.443 154.901 74.949 156.176 74.822 C 157.473 74.692 164.535 73.406 165.083 74.228 C 168.92 79.984 167.394 89.698 170.428 96.2 C 176.951 110.178 183.196 121.438 194.181 132.423 C 195.866 134.108 196.74 136.828 198.931 137.767 C 207.426 141.408 215.331 133.89 222.684 131.235 C 245.656 122.94 268.643 114.562 290.974 104.513"/>
  <path style="stroke: rgb(0, 0, 0); fill: rgb(199, 19, 235);" d="M 157.363 78.979 C 169.548 88.727 167.392 98.767 168.052 114.608 C 168.612 128.037 170.77 142.12 169.24 155.582 C 167.874 167.599 165.609 180.402 163.895 192.399 C 163.834 192.827 160.972 198.931 162.708 198.931 C 165.507 198.931 166.667 194.972 168.646 192.993 C 173.99 187.648 179.335 182.304 184.679 176.96 C 191.621 170.018 191.951 166.531 195.962 157.363 C 198.268 152.092 201.99 147.423 203.682 141.924 C 210.611 119.405 202.256 142.996 205.463 125.891"/>
  <path style="stroke: rgb(0, 0, 0); fill: rgb(199, 19, 235);" d="M 150.238 70.665 C 142.094 70.665 150.859 80.441 152.613 83.729 C 159.039 95.778 165.334 110.057 177.553 117.577 C 201.021 132.019 224.201 136.58 251.188 136.58"/>
  <path style="stroke: rgb(0, 0, 0); fill: rgb(199, 19, 235);" d="M 126.485 130.048 C 117.368 130.554 110.71 131.427 102.732 135.986 C 100.154 137.459 94.476 142.529 97.387 143.112 C 111.304 145.895 128.076 141.298 141.924 140.736 C 149.44 140.432 156.994 141.361 164.489 140.736"/>
  <path style="stroke: rgb(0, 0, 0); fill: rgb(199, 19, 235);" d="M 247.625 140.736 C 247.625 142.32 247.625 143.903 247.625 145.487 C 247.625 146.279 247.625 148.654 247.625 147.862 C 247.625 147.268 247.625 145.487 247.625 146.081"/>
  <path style="stroke: rgb(0, 0, 0); fill: rgb(199, 19, 235);" d="M 257.72 126.485 C 230.333 126.485 205.198 124.075 178.147 120.546 C 170.519 119.551 162.682 118.539 154.988 117.577 C 153.21 117.355 150.078 118.722 149.644 116.983 C 148.583 112.741 151.23 107.605 154.394 105.107 C 156.131 103.736 159.767 105.804 160.926 103.919"/>
  <path style="stroke: rgb(0, 0, 0); fill: rgb(199, 19, 235);" d="M 179.335 97.981 C 174.584 97.981 169.817 98.376 165.083 97.981 C 137.577 95.689 171.946 96.2 147.268 96.2 C 145.487 96.2 142.487 97.89 141.924 96.2 C 138.023 84.497 153.312 79.422 160.333 73.04 C 195.126 41.41 152.305 80.519 165.083 65.914 C 159.06 61.398 152.802 76.44 151.425 81.948 C 149.784 88.512 155.299 75.763 149.05 86.698 C 148.755 87.214 149.626 88.624 149.05 88.48 C 144.304 87.293 149.032 87.283 144.299 84.917"/>
  <path style="stroke: rgb(0, 0, 0); fill: rgb(199, 19, 235);" d="M 140.736 81.354 C 135.825 88.229 131.546 96.066 127.078 103.325 C 124.791 107.042 124.924 114.014 119.952 114.014"/>
  <path style="stroke: rgb(0, 0, 0); fill: rgb(199, 19, 235);" d="M 123.515 112.827 C 128.398 120.639 130.224 130.015 135.392 137.767 C 140.164 144.925 148.477 152.26 154.988 157.957 C 160.956 163.179 176.642 166.573 181.71 157.957 C 184.701 152.872 184.086 148.593 184.086 143.112 C 184.084 141.192 184.184 146.642 184.086 146.675 C 177.88 148.743 183.055 144.893 176.96 144.893"/>
  <path style="stroke: rgb(0, 0, 0); fill: rgb(199, 19, 235);" d="M 48.1 184.679 C 52.563 184.679 61.816 170.855 64.727 167.458 C 68.511 163.043 70.351 156.123 73.634 152.019 C 76.655 148.243 82.234 146.388 85.511 143.112 C 89.948 138.674 95.721 131.554 101.544 127.672 C 131.045 108.005 167.105 93.581 200.713 81.948 C 208.914 79.109 215.421 76.633 223.872 74.822 C 228.326 73.867 231.535 69.08 235.748 68.29 C 243.665 66.805 252.886 66.14 260.689 63.539"/>
  <path style="stroke: rgb(0, 0, 0); fill: rgb(199, 19, 235);" d="M 217.34 84.917 C 223.694 88.094 224.792 95.518 225.653 101.544 C 226.535 107.72 229.827 113.012 230.404 119.359 C 231.305 129.276 230.404 139.678 230.404 149.644"/>
  <path style="stroke: rgb(0, 0, 0); fill: rgb(199, 19, 235);" d="M 133.61 76.009 C 125.597 76.009 118.667 88.615 112.233 92.637 C 103.453 98.124 85.911 108.076 74.822 108.076 C 72.231 115.85 86.537 111.639 90.855 111.639 C 105.36 111.639 120.302 115.864 134.204 119.952 C 144.952 123.113 148.456 148.032 148.456 157.363 C 148.456 158.947 148.456 154.196 148.456 152.613 C 148.456 149.591 149.251 143.701 150.831 141.33"/>
  <path style="stroke: rgb(0, 0, 0); fill: rgb(199, 19, 235);" d="M 36.817 51.069 C 44.186 51.99 43.436 54.126 47.506 59.976 C 55.71 71.77 63.74 84.178 72.447 95.606 C 75.886 100.12 80.656 103.357 84.323 107.482 C 86.95 110.438 87.292 114.955 87.292 108.67"/>
  <path style="stroke: rgb(0, 0, 0); fill: rgb(199, 19, 235);" d="M 79.572 94.418 C 110.493 94.418 142.566 85.8 172.803 80.76 C 173.955 80.568 164.379 88.752 163.895 89.074 C 156.252 94.169 147.594 97.713 139.549 102.138 C 138.785 102.558 129.151 107.831 131.829 111.045 C 136.261 116.364 148.143 113.715 153.8 114.608 C 172.196 117.513 192.609 117.701 211.401 116.39 C 216.343 116.045 225.772 112.199 229.81 111.045 C 231.095 110.678 236.026 110.49 236.936 108.67"/>
  <path style="stroke: rgb(0, 0, 0); fill: rgb(199, 19, 235);" d="M 131.829 173.99 C 141.951 173.99 151.55 164.296 159.145 159.739"/>
  <path style="stroke: rgb(0, 0, 0); fill: rgb(199, 19, 235);" d="M 137.173 160.333 C 137.064 159.785 138.327 149.61 140.143 151.425 C 141.064 152.347 140.143 157.79 140.143 159.145"/>
</svg>